<svg width="32" height="30" viewBox="0 0 32 30" fill="none" xmlns="http://www.w3.org/2000/svg">
<path d="M31.3522 26.4493L30.6907 23.9802C30.6046 23.6588 30.2741 23.4678 29.9528 23.5542C29.6313 23.6403 29.4405 23.9707 29.5267 24.2921L29.8163 25.373L25.5886 22.9614V12.9382C25.5886 12.7225 25.4733 12.5233 25.2863 12.4158L16.5507 7.39345V2.62075L17.3297 3.39976C17.5651 3.63504 17.9465 3.63504 18.1819 3.39976C18.4172 3.16447 18.4172 2.78295 18.1819 2.54761L16.3743 0.74004C16.1387 0.50355 15.753 0.50831 15.5222 0.74004L13.7146 2.54761C13.4793 2.78289 13.4793 3.16441 13.7146 3.39976C13.9499 3.63498 14.3314 3.63498 14.5667 3.39976L15.3457 2.62075V7.39454L6.66876 12.4167C6.48264 12.5244 6.36804 12.7232 6.36804 12.9382V22.864L2.08079 25.3002L2.3709 24.2173C2.457 23.8959 2.26624 23.5655 1.9448 23.4794C1.62329 23.3931 1.29299 23.584 1.20689 23.9055L0.54532 26.3752C0.461569 26.6879 0.648833 27.0359 0.989439 27.1179L3.44056 27.7747C3.7646 27.8615 4.09309 27.6674 4.17853 27.3486C4.26469 27.0272 4.07393 26.6969 3.75249 26.6107L2.70693 26.3306L6.962 23.9126L15.6805 29.0465C15.8671 29.1564 16.0989 29.1579 16.2872 29.0493L18.4974 27.7752C18.7857 27.609 18.8846 27.2405 18.7184 26.9523C18.5522 26.664 18.1838 26.5651 17.8955 26.7312L15.9895 27.83L8.17066 23.2259L15.9103 18.8278L23.7991 23.3279L22.5922 24.0237C22.3039 24.1898 22.2049 24.5583 22.3711 24.8465C22.5373 25.1349 22.9058 25.2339 23.194 25.0676L25.0118 24.0196L29.1923 26.4044L28.1453 26.6849C27.8239 26.771 27.6331 27.1014 27.7193 27.4228C27.8049 27.7426 28.1342 27.9355 28.4572 27.8488L30.872 27.2019C31.2168 27.141 31.4447 26.7944 31.3522 26.4493ZM24.3835 22.2739L16.5507 17.8058V8.78347L24.3835 13.2868V22.2739ZM7.57308 13.2856L15.3456 8.78697V17.7625L7.57308 22.1792V13.2856Z" fill="#D80027"/>
<path d="M20.5274 26.4726C20.8602 26.4726 21.1299 26.2029 21.1299 25.8701C21.1299 25.5373 20.8602 25.2676 20.5274 25.2676C20.1946 25.2676 19.9249 25.5373 19.9249 25.8701C19.9249 26.2029 20.1946 26.4726 20.5274 26.4726Z" fill="#D80027"/>
</svg>
